<?xml version="1.0" encoding="UTF-8"?>
<svg id="Capa_2" data-name="Capa 2" xmlns="http://www.w3.org/2000/svg" viewBox="0 0 11.34 11.34">
  <defs>
    <style>
      .cls-1 {
        fill: #f8b171;
      }

      .cls-1, .cls-2 {
        stroke-width: 0px;
      }

      .cls-2 {
        fill: #fff;
      }
    </style>
  </defs>
  <g id="Capa_1-2" data-name="Capa 1">
    <g>
      <circle class="cls-1" cx="5.67" cy="5.67" r="5.67"/>
      <g>
        <path class="cls-2" d="M4.42,7.8s-.04-.03-.04-.06c0-.04,0-.09.01-.13.01-.05.03-.11.05-.16,0-.03.02-.06.02-.09,0-.01,0-.02.01-.03.02-.05.03-.1.02-.16,0-.03-.01-.05-.03-.08-.02-.03-.04-.05-.07-.06-.01,0-.03-.01-.04-.02-.13-.07-.25-.16-.36-.26-.1-.09-.18-.18-.27-.28-.05-.06-.1-.11-.14-.17-.02-.02-.03-.04-.04-.06-.08-.11-.14-.23-.19-.35-.03-.08-.06-.17-.07-.26-.01-.09-.02-.17-.02-.26,0-.1.02-.19.04-.29.01-.07.03-.14.05-.2.05-.15.12-.29.21-.42.18-.26.42-.46.71-.6.2-.1.4-.17.62-.22.08-.02.16-.03.23-.05.05,0,.11-.01.16-.02.05,0,.1-.01.15-.02.05,0,.1,0,.16,0,.1,0,.21,0,.31.01.23.02.45.06.67.13.25.08.49.19.71.35.19.14.36.3.49.49.12.17.21.36.26.57.01.06.02.12.03.19,0,.04,0,.08,0,.11,0,.2-.04.39-.11.58-.08.19-.18.36-.32.51-.04.04-.07.08-.11.12-.03.03-.07.06-.1.09-.27.22-.57.38-.9.49-.04.01-.08.02-.12.03-.04.01-.08.02-.12.03-.07.02-.13.03-.2.03-.1.01-.19.02-.29.04-.11.02-.21.04-.31.09,0,0,0,0-.01,0-.11.06-.22.1-.33.15-.13.06-.26.11-.39.16-.1.04-.21.07-.31.09,0,0-.02,0-.02,0ZM6.85,5.39c0-.12-.09-.24-.24-.24-.14,0-.24.12-.24.24,0,.12.09.24.24.24.15,0,.24-.12.24-.24ZM4.58,5.39c0,.13.1.24.24.24.14,0,.24-.11.24-.24,0-.13-.11-.24-.24-.24-.14,0-.24.12-.24.24ZM5.95,5.39c0-.12-.1-.24-.24-.24-.13,0-.24.11-.24.24,0,.14.11.24.24.24.14,0,.24-.12.24-.24Z"/>
        <path class="cls-2" d="M6.85,5.39c0,.12-.09.24-.24.24-.14,0-.24-.12-.24-.24,0-.12.1-.24.24-.24.15,0,.24.13.24.24Z"/>
        <path class="cls-2" d="M4.58,5.39c0-.12.1-.24.24-.24.13,0,.24.1.24.24,0,.13-.1.24-.24.24-.14,0-.24-.11-.24-.24Z"/>
        <path class="cls-2" d="M5.95,5.39c0,.12-.1.24-.24.24-.13,0-.24-.1-.24-.24,0-.13.1-.24.24-.24.14,0,.24.12.24.24Z"/>
      </g>
    </g>
  </g>
</svg>